<svg width="414" height="896" viewBox="0 0 414 896" fill="none" xmlns="http://www.w3.org/2000/svg">
<g clip-path="url(#clip0)">
<rect width="414" height="896" fill="white"/>
<ellipse cx="325.5" cy="673" rx="151.5" ry="22" fill="#CDDCEE"/>
<g clip-path="url(#clip1)">
<path d="M163.842 598.203C154.544 587.489 157.713 574.065 156.17 561.788C152 527.77 148.894 493.648 157.087 459.651C174.016 389.718 239.398 334.96 309.491 332C318.413 333.136 327.443 333.136 336.365 332C374.384 334.389 410.369 350 438.086 376.127C442.818 380.484 445.091 382.506 449.907 375.523C458.789 362.641 475.155 359.098 489.957 364.83C507.241 371.646 520.167 389.072 520 407.227C519.792 428.467 515.831 448.249 492.772 457.253C488.894 458.754 488.706 460.526 489.311 464.195C498.943 522.371 490.353 577.108 457.871 627.239C456.787 628.906 455.161 631.262 455.599 632.763C459.768 646.853 452.409 659.006 449.24 671.825C447.843 677.536 444.632 681.747 437.898 682.101C435.106 682.381 432.298 681.751 429.893 680.305C427.488 678.859 425.616 676.674 424.555 674.076C421.449 667.552 418.842 660.777 415.986 654.128C415.111 652.044 415.986 648.292 412.63 648.646C409.939 649.167 407.531 650.648 405.854 652.815C404.269 654.899 404.102 658.005 403.102 660.569C398.932 671.741 390.28 674.18 381.419 666.093C380.144 664.749 378.498 663.813 376.691 663.405C374.883 662.997 372.995 663.134 371.266 663.8C357.178 667.519 342.599 669.038 328.046 668.302C321.98 667.989 319.186 669.907 318.122 675.639C316.913 682.226 313.953 687.5 306.301 688.146C302.952 688.458 299.605 687.534 296.89 685.549C294.175 683.564 292.28 680.655 291.561 677.369C288.622 666.947 282.388 663.133 272.193 662.653C265.979 662.176 259.846 660.944 253.929 658.985C246.799 656.9 241.629 655.775 238.147 665.071C235.624 671.762 226.18 672.179 220.363 667.156C218.091 665.071 215.359 662.632 214.734 659.902C211.773 646.832 201.724 640.725 191.654 633.992C179.395 625.821 169.096 615.608 164.885 600.767C168.2 598.328 171.244 599.787 174.267 601.454C192.009 627.927 219.446 637.932 248.592 644.977C253.658 646.186 258.745 647.208 263.812 648.417C270.921 650.105 278.573 653.065 278.406 640.621C278.438 639.193 279 637.829 279.982 636.792C280.965 635.756 282.298 635.122 283.722 635.014C287.892 634.513 289.977 637.515 291.332 640.85C294.167 647.937 294.772 655.712 297.712 662.778C298.805 665.71 300.093 668.565 301.569 671.325C302.444 672.825 303.424 674.68 305.259 674.639C307.761 674.639 308.303 672.158 308.949 670.241C310.492 665.634 311.034 660.736 312.931 656.233C315.162 650.71 318.31 646.645 324.335 652.377C326.97 654.655 330.361 655.867 333.842 655.775C357.631 657.213 379.709 651.397 401.1 641.496C400.871 638.078 398.056 637.515 396.368 635.993C392.945 632.763 390.279 628.816 388.561 624.435C386.843 620.054 386.115 615.347 386.43 610.652C386.745 605.957 388.094 601.389 390.382 597.277C392.669 593.164 395.838 589.608 399.662 586.863C402.622 584.779 405.916 582.903 409.106 585.8C412.296 588.698 409.836 591.553 408.397 594.263C407.584 595.806 406.542 597.202 405.687 598.703C396.785 614.294 398.744 621.632 414.694 629.323C417.559 630.543 420.064 632.477 421.969 634.94C423.874 637.403 425.116 640.314 425.577 643.393C426.793 650.947 429.207 658.257 432.728 665.05C433.708 666.843 434.687 669.219 437.043 668.948C439.399 668.677 440.087 666.259 440.588 664.258C442.672 655.921 446.509 647.687 445.112 638.87C444.493 635.28 444.62 631.6 445.484 628.061C446.348 624.521 447.932 621.198 450.136 618.297C474.696 583.737 483.202 543.653 482.806 502.923C481.951 412.647 412.296 343.423 324.606 343.423C258.328 343.193 210.377 374.085 179.249 432.053C176.643 436.909 174.684 441.037 178.77 447.165C184.524 455.794 175.684 459.671 169.471 464.07C180.73 474.804 184.191 487.811 183.336 502.298C183.384 510.173 182.904 518.042 181.897 525.852C181.397 532.105 180.396 537.963 174.079 541.194C171.89 541.986 168.637 541.944 168.137 544.529C165.865 555.826 158.588 566.624 164.384 578.797C165.468 582.424 166.323 586.134 167.741 589.677C167.783 593.054 169.263 597.202 163.842 598.203Z" fill="#0350A8"/>
<path d="M163.842 598.203C166.782 595.159 165.218 591.324 165.635 587.781C171.452 588.135 177.102 591.116 183.085 588.844C184.547 589.177 185.857 589.982 186.814 591.135C187.772 592.288 188.322 593.725 188.381 595.222C191.571 605.144 196.72 607.187 212.044 604.581C209.647 600.412 205.498 597.723 202.892 593.805C200.751 591.566 199.265 588.783 198.597 585.759C198.305 584.181 198.305 582.563 198.597 580.985C198.74 579.935 199.175 578.946 199.853 578.131C200.532 577.317 201.426 576.709 202.433 576.379C209.48 577.212 210.939 583.82 214.463 588.197C222.51 598.224 236.208 601.329 246.861 595.159C254.888 590.49 257.286 583.466 253.679 574.982C250.129 567.096 245.185 559.915 239.085 553.783C235.853 550.448 231.433 547.301 233.81 541.423C234.534 540.599 235.416 539.931 236.405 539.458C237.394 538.985 238.469 538.717 239.564 538.671C248.634 541.798 258.328 540.214 267.523 541.986C270.65 543.278 274.215 544.07 274.861 548.239C273.694 552.554 270.525 552.595 267.022 551.949C264.374 547.968 259.35 548.718 256.264 547.092C257.661 549.615 262.748 546.905 264.145 550.886C260.142 555.305 260.768 559.411 263.415 564.727C274.82 587.801 263.728 607.812 237.938 611.585C235.164 611.746 232.436 612.373 229.87 613.44C209.334 624.258 191.3 621.611 176.059 603.56C175.291 602.843 174.294 602.422 173.245 602.372L164.905 600.496L163.842 598.203Z" fill="#0350A8"/>
<path d="M336.365 332C327.625 334.793 318.231 334.793 309.491 332H336.365Z" fill="#0350A8"/>
<path d="M173.224 602.392C177.06 598.224 178.603 601.767 180.771 604.477C191.925 618.047 212.899 620.986 226.888 610.73C228.813 609.397 231.115 608.717 233.456 608.792C262.978 607.103 273.694 585.738 257.703 560.85C256.077 558.328 253.095 556.514 253.095 552.971C256.577 551.282 260.809 553.346 264.082 550.761C264.52 549.74 265.042 549.74 265.646 550.636C268.598 551.251 271.673 550.73 274.257 549.177C274.86 547.555 275.991 546.183 277.467 545.279C301.735 527.707 303.278 497.962 280.887 477.347C269.086 466.508 255.389 465.716 241.274 471.636C227.159 477.556 219.8 488.145 218.716 503.34C218.299 509.156 219.571 515.117 216.964 520.724C216.329 521.701 215.434 522.481 214.379 522.976C209.138 524.398 203.631 524.534 198.326 523.372C176.372 520.328 182.689 520.287 180.584 502.527C180.504 501.835 180.462 501.139 180.458 500.443C180.646 487.394 179.875 474.638 166.469 467.238C163.78 465.737 164.488 464.299 164.989 462.214C165.057 461.616 165.246 461.037 165.546 460.515C165.845 459.992 166.249 459.536 166.731 459.175C167.213 458.814 167.764 458.555 168.35 458.415C168.936 458.274 169.545 458.255 170.138 458.358C173.537 458.358 177.56 459.067 178.353 454.189C178.999 450.125 178.103 447.165 173.328 445.414C168.554 443.663 172.432 440.203 173.474 437.827C188.944 402.162 213.775 375.002 248.529 357.472C359.027 301.672 487.893 381.86 485.787 505.654C485.058 547.634 475.884 588.135 450.636 623.299C447.53 627.635 447.405 631.491 448.26 637.286C450.032 649.521 445.612 661.82 440.358 672.909C437.773 678.349 433.999 673.492 432.019 670.303C426.452 661.34 423.929 651.251 422.074 641.121C421.883 639.087 421.067 637.161 419.738 635.609C418.409 634.056 416.633 632.953 414.652 632.45C396.242 626.092 392.01 611.793 403.518 596.014C404.54 594.618 405.895 593.471 406.896 592.074C408.168 590.261 411.066 588.364 408.126 586.071C405.812 584.279 403.748 586.071 401.871 587.718C385.797 601.142 383.525 629.844 405.645 638.411C406.77 639.046 407.838 639.779 408.835 640.6C384.221 654.349 356.162 660.703 328.025 658.901C325.482 658.755 322.188 659.547 322.188 655.087C322.188 653.002 321.958 650.418 318.998 650.918C316.913 651.314 316.058 653.544 315.579 655.691C314.224 661.778 312.868 667.864 311.409 673.909C310.658 676.911 309.804 680.496 306.093 680.684C303.132 680.83 301.485 678.036 300.109 675.535C295.501 667.197 293.166 658.276 290.831 649.23C290.143 646.562 289.518 643.852 288.746 641.184C287.975 638.516 286.662 636.327 283.847 636.681C280.199 637.14 280.115 640.371 280.47 643.164C280.928 646.541 281.804 649.876 282.763 654.441C264.645 652.586 247.8 647.896 231.037 643.101C216.714 638.953 203.205 632.39 191.091 623.695C183.344 618.312 177.176 610.957 173.224 602.392Z" fill="#FDF0CE"/>
<path d="M182.439 589.969C175.955 596.223 170.722 592.637 165.635 587.885C161.173 586.134 163.55 582.465 163.258 579.547C158.651 564.164 165.927 551.97 173.954 539.943C176.957 536.34 179.097 532.097 180.208 527.54C189.965 524.935 193.051 532.105 194.802 538.838C196.887 546.425 196.741 554.471 191.196 561.204C183.398 569.229 184.837 580.193 182.439 589.969Z" fill="#FE5248"/>
<path d="M188.548 560.745C196.47 550.323 194.656 529.813 180.208 527.499L180.396 501.485C180.396 512.887 178.311 514.596 183.002 518.744C187.172 522.35 206.498 520.599 199.535 520.829C194.302 523.413 188.902 521.85 183.586 522.1C194.01 520.704 204.872 524.852 215.276 520.224L214.963 520.412C220.801 521.683 218.716 524.81 216.944 527.937C206.519 533.731 200.265 541.735 201.87 554.471C202.249 557.236 201.555 560.04 199.931 562.309C197.679 563.539 195.053 560.912 192.426 564.06C190.382 566.478 186.296 566.228 188.548 560.745Z" fill="#0350A8"/>
<path d="M174.517 523.163C171.827 529.771 169.888 537.4 159.506 533.961C169.534 532.21 170.764 524.56 170.764 517.056C170.764 503.465 176.018 488.603 162.237 477.91C161.173 477.097 161.528 475.305 162.82 474.325C164.113 473.345 165.385 474.033 166.552 474.825C172.682 478.994 173.453 485.623 174.496 492.147C175.272 502.471 175.279 512.838 174.517 523.163Z" fill="white"/>
<path d="M173.954 539.901C171.118 553.283 161.882 564.914 163.258 579.505C161.507 579.109 159.922 578.359 159.651 576.379C158.13 565.456 162.424 555.201 164.509 544.841C165.385 541.11 168.679 537.525 173.954 539.901Z" fill="#0350A8"/>
<path d="M220.071 650.209C225.325 651.773 232.392 649.313 234.081 656.671C234.623 658.985 232.664 662.737 229.64 662.528C222.302 661.986 222.698 654.941 220.071 650.209Z" fill="#FDF0CE"/>
<path d="M174.517 523.163C174.517 512.811 174.517 502.458 174.517 492.105C177.06 502.302 177.06 512.967 174.517 523.163Z" fill="#0350A8"/>
<path d="M198.91 562.788C200.119 551.949 194.927 539.651 206.561 531.147C209.48 529.062 212.086 526.978 215.755 527.103C219.787 527.976 223.555 529.792 226.751 532.4C229.947 535.008 232.481 538.336 234.144 542.111C237.792 551.345 246.799 556.285 251.803 564.643C261.435 580.756 261.414 589.052 250.03 596.681C236.708 605.623 221.509 602.934 212.211 589.844L203.288 577.338C199.181 573.252 196.908 568.666 198.91 562.788Z" fill="#FE5248"/>
<path d="M234.144 542.111L215.755 527.103C216.985 524.727 218.174 522.329 215.005 520.453C215.005 515.263 215.005 510.031 215.213 504.883C216.318 480.87 234.811 464.111 258.995 465.008C280.824 465.82 299.233 485.185 299.171 507.259C299.171 530.438 291.102 543.778 274.152 548.948C273.11 545.758 269.211 546.592 267.564 544.278C268.022 543.144 268.71 542.117 269.586 541.263C270.462 540.409 271.506 539.746 272.651 539.318C288.517 531.751 291.54 518.202 289.33 502.632C287.245 487.874 277.676 479.703 263.937 475.534C246.549 470.323 226.409 484.414 224.762 502.506C223.761 514.117 225.617 524.581 234.54 532.918C235.651 533.767 236.571 534.841 237.239 536.069C237.908 537.298 238.309 538.653 238.418 540.047L234.144 542.111Z" fill="#0350A8"/>
<path d="M238.564 540.11C220.905 523.434 216.964 510.698 224.178 493.46C226.763 486.78 231.382 481.08 237.383 477.168C243.384 473.255 250.463 471.328 257.619 471.657C272.213 471.865 286.453 481.829 290.81 495.774C296.606 514.284 293.75 537.775 267.668 544.362C257.661 545.008 247.675 545.529 238.564 540.11Z" fill="white"/>
<path d="M198.91 562.788C201.211 567.359 202.693 572.297 203.288 577.379C202.539 577.873 201.928 578.55 201.512 579.344C201.097 580.139 200.89 581.027 200.911 581.923C197.221 582.799 196.366 576.254 190.716 579.026C187.276 580.714 189.674 574.086 188.819 571.397C188.193 584.258 189.799 585.196 200.786 585.363C200.786 588.593 203.58 589.907 205.227 592.012C199.973 598.015 193.531 598.515 186.463 596.181C186.5 594.883 186.133 593.606 185.412 592.527C184.691 591.448 183.652 590.619 182.439 590.157C180.71 585.197 180.365 579.859 181.441 574.718C182.517 569.576 184.974 564.825 188.548 560.975C188.819 564.372 190.528 564.456 192.321 562.267C195.136 558.599 196.908 560.954 198.91 562.788Z" fill="#0350A8"/>
<path d="M186.463 595.993L205.227 591.824C208.562 597.828 214.796 601.225 219.821 607.395C209.396 609.479 200.077 609.709 191.091 606.124C186.942 604.56 183.273 601.517 186.463 595.993Z" fill="#FE5248"/>
<path d="M200.786 585.258C197.2 588.072 193.134 591.824 189.027 587.343C183.94 581.715 186.463 575.336 189.319 569.146C192.071 571.939 188.298 575.399 190.799 578.421C194.365 576.337 191.3 571.751 194.636 569.625C199.035 572.481 197.867 578.338 200.89 581.882L200.786 585.258Z" fill="#F1BBB1"/>
<path d="M265.646 550.49L264.896 550.886L264.082 550.615C261.018 549.906 257.369 551.157 252.741 545.758C259.016 547.051 263.582 543.632 265.646 550.49Z" fill="#0350A8"/>
<path d="M407.876 484.163C407.334 516.055 386.026 532.105 355.004 523.768C315.683 513.346 289.122 471.657 296.627 432.053C301.402 406.769 324.022 392.865 348.582 400.432C368.076 406.435 382.253 419.588 392.573 436.451C401.35 450.938 408.084 466.592 407.876 484.163Z" fill="#0350A8"/>
<path d="M251.156 459.15C245.944 456.899 236.562 462.673 236.562 452.188C236.562 442.808 245.256 444.955 250.864 444.872C256.848 444.768 266.397 441.662 266.835 451.125C267.397 462.152 256.869 457.066 251.156 459.15Z" fill="#0350A8"/>
<path d="M215.317 520.266C205.581 527.082 194.948 521.225 184.753 521.704L199.577 520.87L215.317 520.266Z" fill="#0350A8"/>
<path d="M417.654 583.195C417.699 584.198 417.345 585.178 416.669 585.92C415.993 586.662 415.05 587.107 414.047 587.155C411.962 587.405 411.337 585.634 411.399 583.82C411.345 583.315 411.393 582.803 411.541 582.317C411.689 581.83 411.935 581.379 412.262 580.989C412.589 580.6 412.991 580.281 413.445 580.051C413.899 579.821 414.394 579.685 414.902 579.651C416.778 579.672 417.633 581.277 417.654 583.195Z" fill="#0350A8"/>
<path d="M230.454 494.065C233.631 487.948 238.725 483.041 244.956 480.094C251.188 477.146 258.213 476.321 264.958 477.743C278.155 480.578 287.204 493.668 287.892 510.886C288.392 523.684 281.053 534.065 269.128 537.379C252.824 541.902 238.751 536.649 230.85 523.101C230.37 513.346 228.264 503.778 230.454 494.065Z" fill="#0350A8"/>
<path d="M230.454 494.065C231.142 503.736 232.935 513.387 230.871 523.101C227.055 513.471 225.929 503.799 230.454 494.065Z" fill="#0350A8"/>
<path d="M400.933 483.142C404.019 509.177 379.939 523.622 356.567 515.784C323.835 504.779 301.965 474.992 303.049 441.474C303.148 433.518 305.748 425.794 310.481 419.397C315.215 413 321.841 408.253 329.422 405.831C337.532 403.267 344.579 405.976 351.397 409.02C374.685 419.442 387.694 439.098 396.555 461.839C399.244 468.76 402.789 475.93 400.933 483.142Z" fill="#FE5248"/>
</g>
</g>
<defs>
<clipPath id="clip0">
<rect width="414" height="896" fill="white"/>
</clipPath>
<clipPath id="clip1">
<rect width="368" height="356" fill="white" transform="translate(152 332)"/>
</clipPath>
</defs>
</svg>
